<svg xmlns="http://www.w3.org/2000/svg" style="display:none"><symbol id="svg01" viewBox="0 0 305.196 294.442"><linearGradient id="svg01-a" gradientUnits="userSpaceOnUse" x1="53.644" y1="115.449" x2="255.157" y2="115.449" gradientTransform="rotate(-.47 214.281 336)"><stop offset="0" stop-color="#00f"/><stop offset=".319" stop-color="#1840fb"/><stop offset=".638" stop-color="#2d78f8"/><stop offset=".874" stop-color="#3a9cf6"/><stop offset="1" stop-color="#3fa9f5"/></linearGradient><path d="M152.857 231.902L52.312 174.151 52.054 58.2 152.34 0l100.545 57.751.259 115.951z"/><linearGradient id="svg01-b" gradientUnits="userSpaceOnUse" y1="284" x2="24.455" y2="284"><stop offset="0" stop-color="#00f"/><stop offset=".319" stop-color="#1840fb"/><stop offset=".638" stop-color="#2d78f8"/><stop offset=".874" stop-color="#3a9cf6"/><stop offset="1" stop-color="#3fa9f5"/></linearGradient><path d="M.03 274.544c-.116-.406.116-.696.522-.696H3.22c.232 0 .464.203.522.406l3.017 11.573h.116l4.612-11.95c.058-.175.203-.319.493-.319h.522c.291 0 .436.145.493.319l4.641 11.95h.116l2.958-11.573c.058-.203.291-.406.522-.406H23.9c.406 0 .638.29.522.696l-5.482 19.492a.557.557 0 0 1-.522.406h-.464c-.261 0-.435-.145-.493-.319l-5.192-13.14h-.145l-5.134 13.14c-.087.175-.203.319-.493.319h-.462a.557.557 0 0 1-.522-.406L.03 274.544z"/><linearGradient id="svg01-c" gradientUnits="userSpaceOnUse" x1="34.279" y1="284" x2="47.188" y2="284"><stop offset="0" stop-color="#00f"/><stop offset=".319" stop-color="#1840fb"/><stop offset=".638" stop-color="#2d78f8"/><stop offset=".874" stop-color="#3a9cf6"/><stop offset="1" stop-color="#3fa9f5"/></linearGradient><path d="M34.279 274.398a.55.55 0 0 1 .551-.551h11.806a.55.55 0 0 1 .551.551v2.379a.55.55 0 0 1-.551.551H38.05v4.758h7.165a.57.57 0 0 1 .551.551v2.407a.551.551 0 0 1-.551.552H38.05v5.076h8.586a.55.55 0 0 1 .551.551v2.379a.55.55 0 0 1-.551.551H34.831a.55.55 0 0 1-.551-.551v-19.204z"/><linearGradient id="svg01-d" gradientUnits="userSpaceOnUse" x1="61.191" y1="284" x2="75.086" y2="284"><stop offset="0" stop-color="#00f"/><stop offset=".319" stop-color="#1840fb"/><stop offset=".638" stop-color="#2d78f8"/><stop offset=".874" stop-color="#3a9cf6"/><stop offset="1" stop-color="#3fa9f5"/></linearGradient><path d="M61.191 274.398a.55.55 0 0 1 .551-.551h6.643c3.452 0 6.12 2.32 6.12 5.366 0 2.233-1.827 3.974-3.19 4.612 1.537.493 3.771 2.06 3.771 4.728 0 3.249-2.785 5.599-6.324 5.599h-7.02a.55.55 0 0 1-.551-.551v-19.203zm6.846 7.978c1.479 0 2.495-1.161 2.495-2.611s-1.015-2.466-2.495-2.466h-3.104v5.077h3.104zm.406 8.353c1.45 0 2.61-1.131 2.61-2.64 0-1.45-1.45-2.523-2.958-2.523h-3.162v5.163h3.51z"/><linearGradient id="svg01-e" gradientUnits="userSpaceOnUse" x1="85.55" y1="287.074" x2="93.121" y2="287.074"><stop offset="0" stop-color="#00f"/><stop offset=".319" stop-color="#1840fb"/><stop offset=".638" stop-color="#2d78f8"/><stop offset=".874" stop-color="#3a9cf6"/><stop offset="1" stop-color="#3fa9f5"/></linearGradient><path d="M85.55 288.061v-1.943c0-.318.232-.551.551-.551h6.468c.319 0 .551.232.551.551v1.943c0 .29-.232.522-.551.522h-6.468c-.319 0-.551-.232-.551-.522z"/><linearGradient id="svg01-f" gradientUnits="userSpaceOnUse" x1="103.182" y1="284" x2="116.96" y2="284"><stop offset="0" stop-color="#00f"/><stop offset=".319" stop-color="#1840fb"/><stop offset=".638" stop-color="#2d78f8"/><stop offset=".874" stop-color="#3a9cf6"/><stop offset="1" stop-color="#3fa9f5"/></linearGradient><path d="M108.171 277.328h-4.438a.55.55 0 0 1-.551-.551v-2.379a.55.55 0 0 1 .551-.551h12.676a.55.55 0 0 1 .551.551v2.379a.55.55 0 0 1-.551.551h-4.438v16.273a.57.57 0 0 1-.551.551h-2.698a.57.57 0 0 1-.551-.551v-16.273z"/><linearGradient id="svg01-g" gradientUnits="userSpaceOnUse" x1="129.253" y1="284" x2="142.162" y2="284"><stop offset="0" stop-color="#00f"/><stop offset=".319" stop-color="#1840fb"/><stop offset=".638" stop-color="#2d78f8"/><stop offset=".874" stop-color="#3a9cf6"/><stop offset="1" stop-color="#3fa9f5"/></linearGradient><path d="M129.253 274.398a.55.55 0 0 1 .551-.551h11.806c.318 0 .551.261.551.551v2.379a.55.55 0 0 1-.551.551h-8.586v4.758h7.165a.57.57 0 0 1 .551.551v2.407a.551.551 0 0 1-.551.552h-7.165v5.076h8.586c.318 0 .551.261.551.551v2.379a.55.55 0 0 1-.551.551h-11.806a.55.55 0 0 1-.551-.551v-19.204z"/><linearGradient id="svg01-h" gradientUnits="userSpaceOnUse" x1="153.662" y1="284" x2="176.373" y2="284"><stop offset="0" stop-color="#00f"/><stop offset=".319" stop-color="#1840fb"/><stop offset=".638" stop-color="#2d78f8"/><stop offset=".874" stop-color="#3a9cf6"/><stop offset="1" stop-color="#3fa9f5"/></linearGradient><path d="M157.122 273.992c.029-.231.203-.435.523-.435h.463c.232 0 .406.116.494.29l6.381 13.691h.088l6.381-13.691c.088-.174.232-.29.494-.29h.463c.32 0 .494.203.523.435l3.422 19.493c.088.406-.145.667-.521.667h-2.641c-.26 0-.492-.232-.551-.436l-1.711-10.993h-.088l-5.076 11.399c-.059.175-.232.319-.492.319h-.523c-.26 0-.406-.145-.492-.319l-5.135-11.399h-.086l-1.684 10.993c-.029.203-.26.436-.521.436h-2.611c-.377 0-.609-.261-.551-.667l3.451-19.493z"/><linearGradient id="svg01-i" gradientUnits="userSpaceOnUse" x1="188.442" y1="284" x2="202.308" y2="284"><stop offset="0" stop-color="#00f"/><stop offset=".319" stop-color="#1840fb"/><stop offset=".638" stop-color="#2d78f8"/><stop offset=".874" stop-color="#3a9cf6"/><stop offset="1" stop-color="#3fa9f5"/></linearGradient><path d="M188.442 274.398a.55.55 0 0 1 .551-.551h6.816c3.568 0 6.498 2.9 6.498 6.41 0 3.597-2.93 6.526-6.469 6.526h-3.627v6.817a.57.57 0 0 1-.551.551h-2.668a.551.551 0 0 1-.551-.551v-19.202zm7.135 8.848a2.99 2.99 0 0 0 2.988-3.018c0-1.595-1.363-2.813-2.988-2.813h-3.365v5.831h3.365z"/><linearGradient id="svg01-j" gradientUnits="userSpaceOnUse" x1="215.47" y1="284" x2="227.189" y2="284"><stop offset="0" stop-color="#00f"/><stop offset=".319" stop-color="#1840fb"/><stop offset=".638" stop-color="#2d78f8"/><stop offset=".874" stop-color="#3a9cf6"/><stop offset="1" stop-color="#3fa9f5"/></linearGradient><path d="M215.47 274.398a.55.55 0 0 1 .551-.551h2.668a.57.57 0 0 1 .551.551v16.273h7.398c.318 0 .551.261.551.551v2.379a.55.55 0 0 1-.551.551h-10.617a.551.551 0 0 1-.551-.551v-19.203z"/><linearGradient id="svg01-k" gradientUnits="userSpaceOnUse" x1="237.275" y1="283.856" x2="256.623" y2="283.856"><stop offset="0" stop-color="#00f"/><stop offset=".319" stop-color="#1840fb"/><stop offset=".638" stop-color="#2d78f8"/><stop offset=".874" stop-color="#3a9cf6"/><stop offset="1" stop-color="#3fa9f5"/></linearGradient><path d="M237.333 293.398l9.021-19.521c.088-.175.232-.319.494-.319h.289c.291 0 .406.145.494.319l8.934 19.521c.174.377-.059.754-.494.754h-2.523c-.436 0-.637-.174-.84-.58l-1.422-3.133h-8.674l-1.42 3.133c-.117.29-.379.58-.842.58h-2.523c-.435 0-.668-.377-.494-.754zm12.531-6.178l-2.9-6.382h-.088l-2.842 6.382h5.83z"/><linearGradient id="svg01-l" gradientUnits="userSpaceOnUse" x1="266.798" y1="284" x2="280.575" y2="284"><stop offset="0" stop-color="#00f"/><stop offset=".319" stop-color="#1840fb"/><stop offset=".638" stop-color="#2d78f8"/><stop offset=".874" stop-color="#3a9cf6"/><stop offset="1" stop-color="#3fa9f5"/></linearGradient><path d="M271.786 277.328h-4.438a.551.551 0 0 1-.551-.551v-2.379a.55.55 0 0 1 .551-.551h12.676c.318 0 .551.261.551.551v2.379a.55.55 0 0 1-.551.551h-4.438v16.273c0 .29-.262.551-.551.551h-2.699a.571.571 0 0 1-.551-.551v-16.273z"/><linearGradient id="svg01-m" gradientUnits="userSpaceOnUse" x1="292.288" y1="284" x2="305.196" y2="284"><stop offset="0" stop-color="#00f"/><stop offset=".319" stop-color="#1840fb"/><stop offset=".638" stop-color="#2d78f8"/><stop offset=".874" stop-color="#3a9cf6"/><stop offset="1" stop-color="#3fa9f5"/></linearGradient><path d="M292.288 274.398a.55.55 0 0 1 .551-.551h11.807c.318 0 .551.261.551.551v2.379a.55.55 0 0 1-.551.551h-8.586v4.758h7.164a.57.57 0 0 1 .551.551v2.407a.55.55 0 0 1-.551.552h-7.164v5.076h8.586c.318 0 .551.261.551.551v2.379a.55.55 0 0 1-.551.551h-11.807a.551.551 0 0 1-.551-.551v-19.204z"/></symbol></svg>