<?xml version="1.0" encoding="utf-8"?>
<!-- Generator: Adobe Illustrator 22.1.0, SVG Export Plug-In . SVG Version: 6.00 Build 0)  -->
<svg version="1.1" id="レイヤー_1" xmlns="http://www.w3.org/2000/svg" xmlns:xlink="http://www.w3.org/1999/xlink" x="0px"
	 y="0px" viewBox="0 0 158.6 164.8" style="enable-background:new 0 0 158.6 164.8;" xml:space="preserve">
<style type="text/css">
	.st0{fill:url(#SVGID_1_);}
	.st1{fill:url(#SVGID_2_);}
	.st2{fill:url(#SVGID_3_);}
	.st3{fill:url(#SVGID_4_);}
	.st4{fill:url(#SVGID_5_);}
	.st5{fill:url(#SVGID_6_);}
	.st6{fill:url(#SVGID_7_);}
	.st7{fill:url(#SVGID_8_);}
	.st8{fill:url(#SVGID_9_);}
	.st9{fill:url(#SVGID_10_);}
	.st10{fill:url(#SVGID_11_);}
	.st11{fill:url(#SVGID_12_);}
</style>
<g>
	
		<linearGradient id="SVGID_1_" gradientUnits="userSpaceOnUse" x1="25.9294" y1="99.918" x2="137.8148" y2="99.918" gradientTransform="matrix(1 -8.200000e-03 -8.200000e-03 -1 -0.6763 164.9684)">
		<stop  offset="0" style="stop-color:#0000FF"/>
		<stop  offset="0.3191" style="stop-color:#1840FB"/>
		<stop  offset="0.6381" style="stop-color:#2D78F8"/>
		<stop  offset="0.8737" style="stop-color:#3A9CF6"/>
		<stop  offset="1" style="stop-color:#3FA9F5"/>
	</linearGradient>
	<polygon class="st0" points="80.5,128.8 24.7,96.7 24.6,32.3 80.2,0 136.1,32.1 136.2,96.4 	"/>
	<g>
		
			<linearGradient id="SVGID_2_" gradientUnits="userSpaceOnUse" x1="-2.041656e-04" y1="5.945" x2="13.3871" y2="5.945" gradientTransform="matrix(1 0 0 -1 0 165)">
			<stop  offset="0" style="stop-color:#0000FF"/>
			<stop  offset="0.3191" style="stop-color:#1840FB"/>
			<stop  offset="0.6381" style="stop-color:#2D78F8"/>
			<stop  offset="0.8737" style="stop-color:#3A9CF6"/>
			<stop  offset="1" style="stop-color:#3FA9F5"/>
		</linearGradient>
		<path class="st1" d="M0,153.9c-0.1-0.2,0.1-0.4,0.3-0.4h1.5c0.1,0,0.3,0.1,0.3,0.2l1.7,6.3h0.1l2.5-6.5c0-0.1,0.1-0.2,0.3-0.2h0.3
			c0.2,0,0.2,0.1,0.3,0.2l2.5,6.5h0.1l1.6-6.3c0-0.1,0.2-0.2,0.3-0.2h1.5c0.2,0,0.3,0.2,0.3,0.4l-3,10.7c0,0.1-0.2,0.2-0.3,0.2H9.8
			c-0.1,0-0.2-0.1-0.3-0.2l-2.8-7.2H6.6l-2.8,7.2c0,0.1-0.1,0.2-0.3,0.2H3.3c-0.1,0-0.3-0.1-0.3-0.2L0,153.9z"/>
		
			<linearGradient id="SVGID_3_" gradientUnits="userSpaceOnUse" x1="20.675" y1="5.9455" x2="28.266" y2="5.9455" gradientTransform="matrix(1 0 0 -1 0 165)">
			<stop  offset="0" style="stop-color:#0000FF"/>
			<stop  offset="0.3191" style="stop-color:#1840FB"/>
			<stop  offset="0.6381" style="stop-color:#2D78F8"/>
			<stop  offset="0.8737" style="stop-color:#3A9CF6"/>
			<stop  offset="1" style="stop-color:#3FA9F5"/>
		</linearGradient>
		<path class="st2" d="M20.7,153.8c0-0.2,0.1-0.3,0.3-0.3h3.7c2,0,3.6,1.6,3.6,3.5c0,2-1.6,3.6-3.5,3.6h-2v3.7
			c0,0.2-0.1,0.3-0.3,0.3H21c-0.2,0-0.3-0.1-0.3-0.3V153.8z M24.6,158.6c0.9,0,1.6-0.7,1.6-1.7c0-0.9-0.7-1.5-1.6-1.5h-1.8v3.2H24.6
			z"/>
		
			<linearGradient id="SVGID_4_" gradientUnits="userSpaceOnUse" x1="34.887" y1="4.2625" x2="39.031" y2="4.2625" gradientTransform="matrix(1 0 0 -1 0 165)">
			<stop  offset="0" style="stop-color:#0000FF"/>
			<stop  offset="0.3191" style="stop-color:#1840FB"/>
			<stop  offset="0.6381" style="stop-color:#2D78F8"/>
			<stop  offset="0.8737" style="stop-color:#3A9CF6"/>
			<stop  offset="1" style="stop-color:#3FA9F5"/>
		</linearGradient>
		<path class="st3" d="M34.9,161.3v-1.1c0-0.2,0.1-0.3,0.3-0.3h3.5c0.2,0,0.3,0.1,0.3,0.3v1.1c0,0.2-0.1,0.3-0.3,0.3h-3.5
			C35,161.6,34.9,161.4,34.9,161.3z"/>
		
			<linearGradient id="SVGID_5_" gradientUnits="userSpaceOnUse" x1="45.494" y1="5.946" x2="53.037" y2="5.946" gradientTransform="matrix(1 0 0 -1 0 165)">
			<stop  offset="0" style="stop-color:#0000FF"/>
			<stop  offset="0.3191" style="stop-color:#1840FB"/>
			<stop  offset="0.6381" style="stop-color:#2D78F8"/>
			<stop  offset="0.8737" style="stop-color:#3A9CF6"/>
			<stop  offset="1" style="stop-color:#3FA9F5"/>
		</linearGradient>
		<path class="st4" d="M48.2,155.4h-2.4c-0.2,0-0.3-0.1-0.3-0.3v-1.3c0-0.2,0.1-0.3,0.3-0.3h6.9c0.2,0,0.3,0.1,0.3,0.3v1.3
			c0,0.2-0.1,0.3-0.3,0.3h-2.4v8.9c0,0.2-0.1,0.3-0.3,0.3h-1.5c-0.2,0-0.3-0.1-0.3-0.3L48.2,155.4L48.2,155.4z"/>
		
			<linearGradient id="SVGID_6_" gradientUnits="userSpaceOnUse" x1="60.087" y1="5.945" x2="67.154" y2="5.945" gradientTransform="matrix(1 0 0 -1 0 165)">
			<stop  offset="0" style="stop-color:#0000FF"/>
			<stop  offset="0.3191" style="stop-color:#1840FB"/>
			<stop  offset="0.6381" style="stop-color:#2D78F8"/>
			<stop  offset="0.8737" style="stop-color:#3A9CF6"/>
			<stop  offset="1" style="stop-color:#3FA9F5"/>
		</linearGradient>
		<path class="st5" d="M60.1,153.8c0-0.2,0.1-0.3,0.3-0.3h6.5c0.2,0,0.3,0.1,0.3,0.3v1.3c0,0.2-0.1,0.3-0.3,0.3h-4.7v2.6h3.9
			c0.2,0,0.3,0.1,0.3,0.3v1.3c0,0.2-0.1,0.3-0.3,0.3h-3.9v2.8h4.7c0.2,0,0.3,0.1,0.3,0.3v1.3c0,0.2-0.1,0.3-0.3,0.3h-6.5
			c-0.2,0-0.3-0.1-0.3-0.3C60.1,164.3,60.1,153.8,60.1,153.8z"/>
		
			<linearGradient id="SVGID_7_" gradientUnits="userSpaceOnUse" x1="74.0861" y1="5.9455" x2="86.5211" y2="5.9455" gradientTransform="matrix(1 0 0 -1 0 165)">
			<stop  offset="0" style="stop-color:#0000FF"/>
			<stop  offset="0.3191" style="stop-color:#1840FB"/>
			<stop  offset="0.6381" style="stop-color:#2D78F8"/>
			<stop  offset="0.8737" style="stop-color:#3A9CF6"/>
			<stop  offset="1" style="stop-color:#3FA9F5"/>
		</linearGradient>
		<path class="st6" d="M76,153.6c0-0.1,0.1-0.2,0.3-0.2h0.3c0.1,0,0.2,0.1,0.3,0.2l3.5,7.5c0,0,0,0,0,0l3.5-7.5
			c0-0.1,0.1-0.2,0.3-0.2h0.3c0.2,0,0.3,0.1,0.3,0.2l1.9,10.7c0,0.2-0.1,0.4-0.3,0.4h-1.4c-0.1,0-0.3-0.1-0.3-0.2l-0.9-6
			c0,0,0,0,0,0l-2.8,6.2c0,0.1-0.1,0.2-0.3,0.2h-0.3c-0.1,0-0.2-0.1-0.3-0.2l-2.8-6.2c0,0,0,0,0,0l-0.9,6c0,0.1-0.1,0.2-0.3,0.2
			h-1.4c-0.2,0-0.3-0.1-0.3-0.4L76,153.6z"/>
		
			<linearGradient id="SVGID_8_" gradientUnits="userSpaceOnUse" x1="94.085" y1="5.9455" x2="101.676" y2="5.9455" gradientTransform="matrix(1 0 0 -1 0 165)">
			<stop  offset="0" style="stop-color:#0000FF"/>
			<stop  offset="0.3191" style="stop-color:#1840FB"/>
			<stop  offset="0.6381" style="stop-color:#2D78F8"/>
			<stop  offset="0.8737" style="stop-color:#3A9CF6"/>
			<stop  offset="1" style="stop-color:#3FA9F5"/>
		</linearGradient>
		<path class="st7" d="M94.1,153.8c0-0.2,0.1-0.3,0.3-0.3h3.7c2,0,3.6,1.6,3.6,3.5c0,2-1.6,3.6-3.5,3.6h-2v3.7
			c0,0.2-0.1,0.3-0.3,0.3h-1.5c-0.2,0-0.3-0.1-0.3-0.3V153.8z M98,158.6c0.9,0,1.6-0.7,1.6-1.7c0-0.9-0.7-1.5-1.6-1.5h-1.8v3.2H98z"
			/>
		
			<linearGradient id="SVGID_9_" gradientUnits="userSpaceOnUse" x1="108.884" y1="5.945" x2="115.301" y2="5.945" gradientTransform="matrix(1 0 0 -1 0 165)">
			<stop  offset="0" style="stop-color:#0000FF"/>
			<stop  offset="0.3191" style="stop-color:#1840FB"/>
			<stop  offset="0.6381" style="stop-color:#2D78F8"/>
			<stop  offset="0.8737" style="stop-color:#3A9CF6"/>
			<stop  offset="1" style="stop-color:#3FA9F5"/>
		</linearGradient>
		<path class="st8" d="M108.9,153.8c0-0.2,0.1-0.3,0.3-0.3h1.5c0.2,0,0.3,0.1,0.3,0.3v8.9h4c0.2,0,0.3,0.1,0.3,0.3v1.3
			c0,0.2-0.1,0.3-0.3,0.3h-5.8c-0.2,0-0.3-0.1-0.3-0.3C108.9,164.3,108.9,153.8,108.9,153.8z"/>
		
			<linearGradient id="SVGID_10_" gradientUnits="userSpaceOnUse" x1="120.8259" y1="6.0255" x2="131.4182" y2="6.0255" gradientTransform="matrix(1 0 0 -1 0 165)">
			<stop  offset="0" style="stop-color:#0000FF"/>
			<stop  offset="0.3191" style="stop-color:#1840FB"/>
			<stop  offset="0.6381" style="stop-color:#2D78F8"/>
			<stop  offset="0.8737" style="stop-color:#3A9CF6"/>
			<stop  offset="1" style="stop-color:#3FA9F5"/>
		</linearGradient>
		<path class="st9" d="M120.9,164.2l4.9-10.7c0-0.1,0.1-0.2,0.3-0.2h0.2c0.2,0,0.2,0.1,0.3,0.2l4.9,10.7c0.1,0.2,0,0.4-0.3,0.4h-1.4
			c-0.2,0-0.4-0.1-0.5-0.3l-0.8-1.7h-4.7l-0.8,1.7c-0.1,0.2-0.2,0.3-0.5,0.3h-1.4C120.9,164.6,120.8,164.4,120.9,164.2z
			 M127.7,160.8l-1.6-3.5h0l-1.6,3.5H127.7z"/>
		
			<linearGradient id="SVGID_11_" gradientUnits="userSpaceOnUse" x1="136.99" y1="5.946" x2="144.534" y2="5.946" gradientTransform="matrix(1 0 0 -1 0 165)">
			<stop  offset="0" style="stop-color:#0000FF"/>
			<stop  offset="0.3191" style="stop-color:#1840FB"/>
			<stop  offset="0.6381" style="stop-color:#2D78F8"/>
			<stop  offset="0.8737" style="stop-color:#3A9CF6"/>
			<stop  offset="1" style="stop-color:#3FA9F5"/>
		</linearGradient>
		<path class="st10" d="M139.7,155.4h-2.4c-0.2,0-0.3-0.1-0.3-0.3v-1.3c0-0.2,0.1-0.3,0.3-0.3h6.9c0.2,0,0.3,0.1,0.3,0.3v1.3
			c0,0.2-0.1,0.3-0.3,0.3h-2.4v8.9c0,0.2-0.1,0.3-0.3,0.3H140c-0.2,0-0.3-0.1-0.3-0.3L139.7,155.4L139.7,155.4z"/>
		
			<linearGradient id="SVGID_12_" gradientUnits="userSpaceOnUse" x1="151.585" y1="5.945" x2="158.651" y2="5.945" gradientTransform="matrix(1 0 0 -1 0 165)">
			<stop  offset="0" style="stop-color:#0000FF"/>
			<stop  offset="0.3191" style="stop-color:#1840FB"/>
			<stop  offset="0.6381" style="stop-color:#2D78F8"/>
			<stop  offset="0.8737" style="stop-color:#3A9CF6"/>
			<stop  offset="1" style="stop-color:#3FA9F5"/>
		</linearGradient>
		<path class="st11" d="M151.6,153.8c0-0.2,0.1-0.3,0.3-0.3h6.5c0.2,0,0.3,0.1,0.3,0.3v1.3c0,0.2-0.1,0.3-0.3,0.3h-4.7v2.6h3.9
			c0.2,0,0.3,0.1,0.3,0.3v1.3c0,0.2-0.1,0.3-0.3,0.3h-3.9v2.8h4.7c0.2,0,0.3,0.1,0.3,0.3v1.3c0,0.2-0.1,0.3-0.3,0.3h-6.5
			c-0.2,0-0.3-0.1-0.3-0.3V153.8z"/>
	</g>
</g>
</svg>
